<?xml version="1.0" encoding="UTF-8" standalone="no"?>
<!DOCTYPE svg PUBLIC "-//W3C//DTD SVG 1.1//EN" "http://www.w3.org/Graphics/SVG/1.1/DTD/svg11.dtd">
<svg width="32%" height="32%" viewBox="0 0 2160 2160" version="1.1" xmlns="http://www.w3.org/2000/svg" xmlns:xlink="http://www.w3.org/1999/xlink" xml:space="preserve" xmlns:serif="http://www.serif.com/" fill="#FFFFFF" style="fill-rule:evenodd;clip-rule:evenodd;stroke-linejoin:round;stroke-miterlimit:2;">
    <g transform="matrix(1.20627,-1.13523,1.13523,1.20627,-1489.55,1249.41)">
        <path d="M421.212,1052.61L345.125,980.628L1180.16,979.985C1180.16,979.985 1180.53,742.887 1180.53,657.927C1180.53,532.408 1302.15,455.494 1433.41,540.716L1540.39,610.121C1485.43,617.017 1442.83,664.544 1442.83,722.07C1442.83,784.334 1492.74,834.884 1554.21,834.884C1615.68,834.884 1665.59,784.334 1665.59,722.07C1665.59,710.19 1663.78,698.736 1660.4,687.985L2084.71,963.283L1777.27,915.334L1839.69,980.628L1454.3,980.628C1454.3,980.628 1457.08,1431.74 1457.08,1457.13C1457.08,1782.99 1203.89,1802.4 1034.8,1633.32L947.819,1550.91C1055.3,1578.01 1146.72,1564.78 1172.04,1503.63L901.411,1506.97L822.833,1432.61L1176.36,1432.61L1176.36,1386.7L774.312,1386.7L707.828,1323.78L1176.36,1323.78L1176.36,1277.87L659.3,1277.87L592.185,1214.37L1176.36,1214.37L1176.36,1168.45L543.652,1168.45L469.745,1098.53L1176.36,1098.53L1176.36,1052.61L421.212,1052.61ZM1554.21,642.07C1598.36,642.07 1634.21,677.917 1634.21,722.07C1634.21,766.223 1598.36,802.07 1554.21,802.07C1510.06,802.07 1474.21,766.223 1474.21,722.07C1474.21,677.917 1510.06,642.07 1554.21,642.07Z"/>
    </g>
</svg>
